<?xml version="1.0" encoding="UTF-8"?>
<svg id="Layer_1" data-name="Layer 1" xmlns="http://www.w3.org/2000/svg" version="1.1" viewBox="0 0 24 24">
  <defs>
    <style>
      .cls-1 {
        fill: #673ab7;
        stroke-width: 0px;
      }
    </style>
  </defs>
  <path class="cls-1" d="M13.3,21H5c-1.1,0-2-.9-2-2V5c0-1.1.9-2,2-2h14c1.1,0,2,.9,2,2v8.3c-.6-.2-1.3-.3-2-.3-1.1,0-2.2.3-3.1.9l-1.4-1.9-3.5,4.5-2.5-3-3.5,4.5h8.1c-.1.3-.1.7-.1,1,0,.7.1,1.4.3,2Z"/>
  <path class="cls-1" d="M22.3,15h-1.8v.9h1.8v1.8h.9v-1.8c0-.5-.4-.9-.9-.9M22.3,22.1h-1.8v.9h1.8c.5,0,.9-.4.9-.9v-1.8h-.9M15.9,20.3h-.9v1.8c0,.5.4.9.9.9h1.8v-.9h-1.8M15,15.9v1.8h.9v-1.8h1.8v-.9h-1.8c-.5,0-.9.4-.9.9Z"/>
</svg>